<svg xmlns="http://www.w3.org/2000/svg" version="1.1" xmlns:xlink="http://www.w3.org/1999/xlink" xmlns:svgjs="http://svgjs.dev/svgjs" width="128" height="128" viewBox="0 0 128 128"><g transform="matrix(0.8046875,0,0,0.8046875,12.760752631578946,16.887307783045415)"><svg viewBox="0 0 95 87" data-background-color="#111111" preserveAspectRatio="xMidYMid meet" height="117" width="128" xmlns="http://www.w3.org/2000/svg" xmlns:xlink="http://www.w3.org/1999/xlink"><g id="tight-bounds" transform="matrix(1,0,0,1,-0.24049999999999727,0.03555228014324996)"><svg viewBox="0 0 95.48100000000001 86.9288954397135" height="86.9288954397135" width="95.48100000000001"><g><svg viewBox="0 0 95.48100000000001 86.9288954397135" height="86.9288954397135" width="95.48100000000001"><g><svg viewBox="0 0 95.48100000000001 86.9288954397135" height="86.9288954397135" width="95.48100000000001"><g id="textblocktransform"><svg viewBox="0 0 95.48100000000001 86.9288954397135" height="86.9288954397135" width="95.48100000000001" id="textblock"><g><svg viewBox="0 0 95.48100000000001 86.9288954397135" height="86.9288954397135" width="95.48100000000001"><g><svg viewBox="0 0 95.48100000000001 86.9288954397135" height="86.9288954397135" width="95.48100000000001"><g><svg xmlns="http://www.w3.org/2000/svg" data-name="list 3 tick copy" viewBox="8.099735143345097 12.733160154358448 82.24773010234473 74.88091170201926" x="0" y="0" height="86.9288954397135" width="95.48100000000001" class="icon-icon-0" data-fill-palette-color="accent" id="icon-0"></svg></g></svg></g></svg></g></svg></g></svg></g></svg></g><defs></defs><mask id="26ea54f6-1989-47f3-b192-d8d6d9e7cd79"><g id="SvgjsG1263"><svg viewBox="0 0 95.48100000000001 86.9288954397135" height="86.9288954397135" width="95.48100000000001"><g><svg viewBox="0 0 95.48100000000001 86.9288954397135" height="86.9288954397135" width="95.48100000000001"><g><svg viewBox="0 0 95.48100000000001 86.9288954397135" height="86.9288954397135" width="95.48100000000001"><g id="SvgjsG1262"><svg viewBox="0 0 95.48100000000001 86.9288954397135" height="86.9288954397135" width="95.48100000000001" id="SvgjsSvg1261"><g><svg viewBox="0 0 95.48100000000001 86.9288954397135" height="86.9288954397135" width="95.48100000000001"><g><svg viewBox="0 0 95.48100000000001 86.9288954397135" height="86.9288954397135" width="95.48100000000001"><g><svg xmlns="http://www.w3.org/2000/svg" data-name="list 3 tick copy" viewBox="8.099735143345097 12.733160154358448 82.24773010234473 74.88091170201926" x="0" y="0" height="86.9288954397135" width="95.48100000000001" class="icon-icon-0" data-fill-palette-color="accent" id="SvgjsSvg1260"><path d="M28 37c-1 1.46-2 2.94-3 4.44h0c-1.48-1.17-4.9-0.64-6.55-0.48a60.44 60.44 0 0 0-9.1 1.78 0.88 0.88 0 0 0-0.39 1.48A61 61 0 0 0 8.45 58a0.93 0.93 0 0 0 0.84 1.59q0.91-0.22 1.81-0.4c0.55-0.11 1.1-0.2 1.65-0.27 0 0 0.09 0.19 0.14 0.19a25.71 25.71 0 0 1 3.59-0.1h0a0.71 0.71 0 0 1 0.45 0.27 1.5 1.5 0 0 0 2.39-0.56c0.76 0 1.53 0.05 2.29 0.14 0.1 0 0.2 0 0.3 0 0.79 0.1 1.57 0.2 2.36 0.35a0.91 0.91 0 0 0 1-0.43c0.7 0.08 1.44-0.6 0.92-1.31-0.95-1.29-0.48-3.86-0.48-5.36V47c0-0.18 0-0.38 0-0.6s0-0.43 0.05-0.66Q28 42 30.55 38.48C31.68 36.91 29.08 35.41 28 37ZM22.21 57L21.58 57l-1.23-0.12-0.22 0q1.72-3.93 3.77-7.69v4.23a13.17 13.17 0 0 0 0.2 3.93C23.45 57.21 22.83 57.12 22.21 57Zm-9.1 0l-0.8 0.11c-0.69 0.1-1.37 0.22-2.06 0.36-0.07-1-0.12-2.06-0.14-3.08 0-0.13 0-0.25 0-0.38 0-1 0-1.92 0-2.88 0-0.19 0-0.37 0-0.56s0-0.28 0-0.42c1.71 2.15 3.13 4.49 4.83 6.64l-0.62 0.07Zm5.33-14.3a13.64 13.64 0 0 1 4.17-0.06 3 3 0 0 1 0.49 0.17l0.15 0.07 0.21 0.14 0.13 0.1a1.09 1.09 0 0 1 0.17 0.22 106.17 106.17 0 0 0-6.2 11.88c-2.25-2.73-4-5.85-6.36-8.48a1.38 1.38 0 0 0-0.7-0.43c0.08-0.71 0.16-1.42 0.26-2.13A51.5 51.5 0 0 1 18.43 42.75Z" fill="white"></path><path d="M9.29 31.62a34.42 34.42 0 0 1 15-0.4 0.91 0.91 0 0 0 1-0.42c0.7 0.08 1.44-0.6 0.92-1.3-0.95-1.29-0.48-3.86-0.48-5.36V19.06c0-1.47 0.68-4.4-0.63-5.56s-5-0.7-6.65-0.55a60.43 60.43 0 0 0-9.1 1.78 0.88 0.88 0 0 0-0.39 1.48A61 61 0 0 0 8.45 30 0.93 0.93 0 0 0 9.29 31.62Zm1.47-15.37a51.5 51.5 0 0 1 7.67-1.48 13.64 13.64 0 0 1 4.17-0.06c1.77 0.43 1.3 1.49 1.29 3.07l0 7.62a13.17 13.17 0 0 0 0.2 3.93 36.61 36.61 0 0 0-13.83 0.2A59.1 59.1 0 0 1 10.76 16.26Z" fill="white"></path><path d="M66.13 24c7.54 1.26 14.95 2.29 22.37-0.12 1.11-0.36 0.64-2.12-0.48-1.76-9.26 3-18.42 0.37-27.73-0.9a87.81 87.81 0 0 0-25.09 0.31c-1.16 0.17-0.67 1.93 0.48 1.76C46 21.76 55.87 22.3 66.13 24Z" fill="white"></path><path d="M61.5 48a87.81 87.81 0 0 0-25.09 0.31c-1.16 0.17-0.67 1.93 0.48 1.76 10.31-1.56 20.19-1 30.45 0.7 7.54 1.26 14.95 2.29 22.37-0.12 1.11-0.36 0.64-2.12-0.48-1.76C80 51.9 70.81 49.27 61.5 48Z" fill="white"></path><path d="M89.23 75.65c-9.26 3-18.42 0.37-27.73-0.9a87.81 87.81 0 0 0-25.09 0.31c-1.16 0.17-0.67 1.93 0.48 1.76 10.31-1.56 20.19-1 30.45 0.7 7.54 1.26 14.95 2.29 22.37-0.12C90.83 77 90.35 75.28 89.23 75.65Z" fill="white"></path><path d="M28 65c-1 1.45-2 2.92-3 4.42h0c-1.48-1.18-4.91-0.65-6.56-0.49a60.43 60.43 0 0 0-9.1 1.78 0.88 0.88 0 0 0-0.39 1.48A61 61 0 0 0 8.45 86a0.93 0.93 0 0 0 0.84 1.59q0.91-0.22 1.81-0.4c0.55-0.11 1.1-0.2 1.65-0.28l0.13 0a34.79 34.79 0 0 1 3.58-0.32c0.16 0.17 0.31 0.34 0.47 0.51a1.49 1.49 0 0 0 2.41-0.48c0.76 0 1.52 0.1 2.29 0.19l0.3 0c0.79 0.09 1.57 0.21 2.36 0.37a0.91 0.91 0 0 0 1-0.42c0.7 0.08 1.44-0.6 0.92-1.3-0.95-1.29-0.48-3.86-0.48-5.36V75c0-0.18 0.11-0.38 0.13-0.59s0.15-0.4 0.15-0.62h0c1-2.49 3-4.92 4.66-7.3C31.78 64.91 29.08 63.41 28 65ZM22.21 85l-0.64-0.07-1.22-0.12-0.22 0q1.72-3.92 3.75-7.66v4.2a13.17 13.17 0 0 0 0.2 3.93C23.45 85.18 22.83 85.09 22.21 85Zm-9.1 0l-0.82 0.11c-0.68 0.1-1.36 0.22-2 0.36-0.08-1.17-0.13-2.34-0.15-3.51 0-0.35 0-0.71 0-1.06 0-0.82 0-1.63 0-2.45 0-0.09 0-0.18 0-0.27 1.7 2.14 3.12 4.47 4.8 6.62l-0.64 0.07Zm5.32-14.3a13.64 13.64 0 0 1 4.17-0.06 3 3 0 0 1 0.5 0.17l0.14 0.07 0.22 0.14s0.2 0.06 0.24 0.1 0.3 0.15 0.3 0.23h0c-3 3.83-4.5 7.79-6.32 11.89-2.25-2.73-4-5.85-6.42-8.48a1.45 1.45 0 0 0-0.73-0.43c0.08-0.72 0.14-1.44 0.25-2.15A51.3 51.3 0 0 1 18.43 70.72Z" fill="white"></path></svg></g></svg></g></svg></g></svg></g></svg></g></svg></g><defs><mask></mask></defs></svg><rect width="95.48100000000001" height="86.9288954397135" fill="black" stroke="none" visibility="hidden"></rect></g></mask><linearGradient x1="0" x2="1" y1="0.578" y2="0.595" id="e637d427-00f3-4d8f-b67f-d2fa67ed3636"><stop stop-color="#6ee2f5" offset="0"></stop><stop stop-color="#6454f0" offset="1"></stop></linearGradient><rect width="95.48100000000001" height="86.9288954397135" fill="url(#e637d427-00f3-4d8f-b67f-d2fa67ed3636)" mask="url(#26ea54f6-1989-47f3-b192-d8d6d9e7cd79)" data-fill-palette-color="accent"></rect></svg><rect width="95.48100000000001" height="86.9288954397135" fill="none" stroke="none" visibility="hidden"></rect></g></svg></g></svg>